<svg width="57" height="57" viewBox="0 0 57 57" fill="none" xmlns="http://www.w3.org/2000/svg">
<path d="M28.334 0.515625C12.8948 0.515625 0.333984 13.0764 0.333984 28.5156C0.333984 43.9548 12.8948 56.5156 28.334 56.5156C43.7732 56.5156 56.334 43.9548 56.334 28.5156C56.334 13.0764 43.7732 0.515625 28.334 0.515625ZM28.334 51.4247C15.7017 51.4247 5.42489 41.1477 5.42489 28.5156C5.42489 15.8836 15.7017 5.60653 28.334 5.60653C40.9662 5.60653 51.2431 15.8836 51.2431 28.5156C51.2431 41.1477 40.9661 51.4247 28.334 51.4247Z" fill="#3563E9"/>
<path d="M38.8336 18.6166L24.4341 33.0159L17.8346 26.4162C16.8407 25.4223 15.2289 25.4221 14.2348 26.416C13.2407 27.4101 13.2407 29.0217 14.2348 30.0158L22.6341 38.4155C23.1115 38.8928 23.7589 39.1611 24.4339 39.1611H24.4341C25.1092 39.1611 25.7566 38.8928 26.2339 38.4156L42.4334 22.2165C43.4275 21.2224 43.4275 19.6108 42.4334 18.6167C41.4393 17.6227 39.8277 17.6225 38.8336 18.6166Z" fill="#3563E9"/>
</svg>
