<svg width="144" height="120" viewBox="0 0 144 120" fill="none" xmlns="http://www.w3.org/2000/svg">
<path fill-rule="evenodd" clip-rule="evenodd" d="M72.8526 0.498161C87.7159 3.14773 92.3323 19.514 104.227 27.6561C115.319 35.2491 132.825 35.4991 139.639 46.2145C146.795 57.4666 143.865 71.4077 139.923 83.7863C135.828 96.6478 130.497 110.984 116.967 117.413C103.745 123.695 87.8941 116.694 72.8526 115.653C59.3882 114.72 45.2586 117.524 33.5954 111.638C21.3147 105.44 13.7666 94.4227 8.306 83.0779C2.444 70.899 -2.60872 57.6355 1.48688 44.9291C5.66467 31.9678 17.7761 22.3639 30.4113 14.4975C43.0048 6.65701 57.6498 -2.21196 72.8526 0.498161Z" fill="#3563E9"/>
<g clip-path="url(#clip0_2621_2242)">
<path d="M90.667 46.4997H82.917V41.6663C82.917 38.9838 80.6178 36.833 77.7503 36.833H62.2503C59.3828 36.833 57.0837 38.9838 57.0837 41.6663V46.4997H49.3337C46.4662 46.4997 44.167 48.6505 44.167 51.333V77.9163C44.167 80.5988 46.4662 82.7497 49.3337 82.7497H90.667C93.5345 82.7497 95.8337 80.5988 95.8337 77.9163V51.333C95.8337 48.6505 93.5345 46.4997 90.667 46.4997ZM62.2503 41.6663H77.7503V46.4997H62.2503V41.6663ZM90.667 77.9163H49.3337V73.083H90.667V77.9163ZM90.667 65.833H49.3337V51.333H57.0837V56.1663H62.2503V51.333H77.7503V56.1663H82.917V51.333H90.667V65.833Z" fill="white"/>
</g>
<defs>
<clipPath id="clip0_2621_2242">
<rect width="62" height="58" fill="white" transform="translate(39 32)"/>
</clipPath>
</defs>
</svg>
