<svg width="144" height="120" viewBox="0 0 144 120" fill="none" xmlns="http://www.w3.org/2000/svg">
<path fill-rule="evenodd" clip-rule="evenodd" d="M72.8526 0.498161C87.7159 3.14773 92.3323 19.514 104.227 27.6561C115.319 35.2491 132.825 35.4991 139.639 46.2145C146.795 57.4666 143.865 71.4077 139.923 83.7863C135.828 96.6478 130.497 110.984 116.967 117.413C103.745 123.695 87.8941 116.694 72.8526 115.653C59.3882 114.72 45.2586 117.524 33.5954 111.638C21.3147 105.44 13.7666 94.4227 8.306 83.0779C2.444 70.899 -2.60872 57.6355 1.48688 44.9291C5.66467 31.9678 17.7761 22.3639 30.4113 14.4975C43.0048 6.65701 57.6498 -2.21196 72.8526 0.498161Z" fill="#3563E9"/>
<g clip-path="url(#clip0_2621_2244)">
<path d="M74.974 41.833C60.714 41.833 49.1406 52.6597 49.1406 65.9997C49.1406 79.3397 60.714 90.1663 74.974 90.1663C89.234 90.1663 100.807 79.3397 100.807 65.9997C100.807 52.6597 89.234 41.833 74.974 41.833ZM84.2998 57.1547C87.064 57.1547 89.2856 59.233 89.2856 61.8188C89.2856 64.4047 87.064 66.483 84.2998 66.483C81.5356 66.483 79.314 64.4047 79.314 61.8188C79.2881 59.233 81.5356 57.1547 84.2998 57.1547ZM68.7998 53.3363C72.1581 53.3363 74.8965 55.898 74.8965 59.0397C74.8965 62.1813 72.1581 64.743 68.7998 64.743C65.4415 64.743 62.7031 62.1813 62.7031 59.0397C62.7031 55.8738 65.4156 53.3363 68.7998 53.3363ZM68.7998 75.4005V84.463C62.5998 82.6505 57.6915 78.1797 55.5215 72.4763C58.234 69.7697 65.0023 68.3922 68.7998 68.3922C70.169 68.3922 71.8998 68.5855 73.7081 68.9238C69.4715 71.0263 68.7998 73.8055 68.7998 75.4005ZM74.974 85.333C74.2765 85.333 73.6048 85.3088 72.9331 85.2363V75.4005C72.9331 71.9688 80.5281 70.253 84.2998 70.253C87.064 70.253 91.8431 71.1955 94.2198 73.0322C91.1973 80.2097 83.7315 85.333 74.974 85.333Z" fill="white"/>
</g>
<defs>
<clipPath id="clip0_2621_2244">
<rect width="62" height="58" fill="white" transform="translate(44 37)"/>
</clipPath>
</defs>
</svg>
