<svg width="144" height="120" viewBox="0 0 144 120" fill="none" xmlns="http://www.w3.org/2000/svg">
<path fill-rule="evenodd" clip-rule="evenodd" d="M72.8526 0.498161C87.7159 3.14773 92.3323 19.514 104.227 27.6561C115.319 35.2491 132.825 35.4991 139.639 46.2145C146.795 57.4666 143.865 71.4077 139.923 83.7863C135.828 96.6478 130.497 110.984 116.967 117.413C103.745 123.695 87.8941 116.694 72.8526 115.653C59.3882 114.72 45.2586 117.524 33.5954 111.638C21.3147 105.44 13.7666 94.4227 8.306 83.0779C2.444 70.899 -2.60872 57.6355 1.48688 44.9291C5.66467 31.9678 17.7761 22.3639 30.4113 14.4975C43.0048 6.65701 57.6498 -2.21196 72.8526 0.498161Z" fill="#3563E9"/>
<g clip-path="url(#clip0_2621_2243)">
<path d="M90.4452 62.2618C90.5382 61.5368 90.6002 60.7828 90.6002 59.9998C90.6002 59.2168 90.5382 58.4628 90.4142 57.7378L95.6532 53.9098C96.1182 53.5618 96.2422 52.9238 95.9632 52.4308L91.0032 44.3978C90.6932 43.8758 90.0422 43.7018 89.4842 43.8758L83.3152 46.1958C82.0132 45.2678 80.6492 44.5138 79.1302 43.9338L78.2002 37.7858C78.1072 37.2058 77.5802 36.7998 76.9602 36.7998H67.0402C66.4202 36.7998 65.9242 37.2058 65.8312 37.7858L64.9012 43.9338C63.3822 44.5138 61.9872 45.2968 60.7162 46.1958L54.5472 43.8758C53.9892 43.6728 53.3382 43.8758 53.0282 44.3978L48.0682 52.4308C47.7582 52.9528 47.8822 53.5618 48.3782 53.9098L53.6172 57.7378C53.4932 58.4628 53.4002 59.2458 53.4002 59.9998C53.4002 60.7538 53.4622 61.5368 53.5862 62.2618L48.3472 66.0898C47.8822 66.4378 47.7582 67.0758 48.0372 67.5688L52.9972 75.6018C53.3072 76.1238 53.9582 76.2978 54.5162 76.1238L60.6852 73.8038C61.9872 74.7318 63.3512 75.4858 64.8702 76.0658L65.8002 82.2138C65.9242 82.7938 66.4202 83.1998 67.0402 83.1998H76.9602C77.5802 83.1998 78.1072 82.7938 78.1692 82.2138L79.0992 76.0658C80.6182 75.4858 82.0132 74.7028 83.2842 73.8038L89.4532 76.1238C90.0112 76.3268 90.6622 76.1238 90.9722 75.6018L95.9322 67.5688C96.2422 67.0468 96.1182 66.4378 95.6222 66.0898L90.4452 62.2618ZM72.0002 68.6998C66.8852 68.6998 62.7002 64.7848 62.7002 59.9998C62.7002 55.2148 66.8852 51.2998 72.0002 51.2998C77.1152 51.2998 81.3002 55.2148 81.3002 59.9998C81.3002 64.7848 77.1152 68.6998 72.0002 68.6998Z" fill="white"/>
</g>
<defs>
<clipPath id="clip0_2621_2243">
<rect width="62" height="58" fill="white" transform="translate(41 31)"/>
</clipPath>
</defs>
</svg>
