<svg width="189" height="45" viewBox="0 0 189 45" fill="none" xmlns="http://www.w3.org/2000/svg">
<path d="M122.038 6.19922C120.257 16.1731 106.792 20.6614 89.4093 22.6562C55.7116 26.5033 7.40935 20.9464 1.70996 27.6432C7.48059 19.7353 27.9271 18.1679 50.4397 17.5267H50.511C80.7889 16.5294 114.914 17.2418 122.038 6.19922Z" fill="#3563E9"/>
<path d="M188.579 15.8882C159.227 23.3686 133.722 0.784818 89.6942 4.48942C78.6517 5.41557 43.3867 17.6693 43.3867 17.6693C52.007 12.3973 82.3563 2.35215 89.5518 1.49724C95.9636 0.713576 120.756 -3.06227 150.321 5.6293C152.886 6.41296 155.451 7.19663 158.087 8.19402C177.037 14.962 188.579 15.8882 188.579 15.8882Z" fill="#3563E9"/>
<path d="M188.579 15.8877C177.109 28.8538 149.324 23.6531 125.885 22.7982C118.619 22.5132 111.708 22.6557 105.866 23.8668C126.954 14.1066 149.823 17.0988 166.636 18.3812C176.61 19.0936 184.447 19.3073 188.579 15.8877Z" fill="#3563E9"/>
<path d="M20.9452 27.2868C19.0929 32.4875 12.4674 32.4875 7.12423 32.345C3.84709 32.2738 0.997393 32.2025 0 33.1999C1.28236 28.213 9.11902 26.9306 14.8896 26.8594C17.6681 26.8594 20.0191 27.0731 20.9452 27.2868Z" fill="url(#paint0_linear_261_4624)"/>
<path d="M122.038 6.19922C120.257 16.1731 106.792 20.6614 89.4091 22.6562C75.7305 23.2974 70.5298 17.0281 50.5107 17.4555C80.7887 16.5294 114.914 17.2418 122.038 6.19922Z" fill="#3563E9"/>
<path d="M150.25 5.55772C131.585 2.63678 115.413 0.0720589 89.6229 4.48908C78.5804 5.41523 43.3154 17.6689 43.3154 17.6689C52.007 12.397 82.3562 2.35181 89.5517 1.49691C95.9635 0.71324 120.756 -3.0626 150.25 5.55772Z" fill="#3563E9"/>
<path d="M166.707 18.3103C152.744 18.0253 148.612 23.1548 125.885 22.7273C118.619 22.4424 111.708 22.5848 105.866 23.796C127.025 14.0358 149.894 17.0279 166.707 18.3103Z" fill="#3563E9"/>
<path d="M171.124 26.859C183.164 25.3629 188.293 20.3047 188.293 20.3047C189.79 26.3603 187.51 31.2048 171.124 26.859Z" fill="#FF1C00"/>
<path d="M31.612 45.0004C30.3612 45.0004 29.1699 44.7621 28.0978 44.3452C27.0257 43.9282 26.0728 43.3326 25.2985 42.5583C24.5242 41.784 23.869 40.8906 23.452 39.8185C22.9756 38.806 22.7969 37.6147 22.7969 36.4235C22.7969 35.1727 23.0351 34.0411 23.452 33.0285C23.869 32.016 24.5242 31.063 25.2985 30.2887C26.0728 29.5144 27.0257 28.9188 28.0978 28.5019C29.1699 28.0849 30.3612 27.8467 31.612 27.8467C32.9223 27.8467 34.1135 28.0849 35.1856 28.5019C36.2577 28.9188 37.2107 29.574 37.985 30.4674L36.4364 31.9564C35.7812 31.3012 35.0665 30.7652 34.2922 30.4674C33.5179 30.1696 32.6245 29.9909 31.7311 29.9909C30.7781 29.9909 29.9442 30.1696 29.1104 30.4674C28.2765 30.7652 27.6213 31.2417 27.0257 31.7777C26.4301 32.3733 25.9536 33.0285 25.6558 33.8028C25.358 34.5771 25.1793 35.4705 25.1793 36.364C25.1793 37.3169 25.358 38.1508 25.6558 38.9251C25.9536 39.6994 26.4301 40.4141 27.0257 40.9502C27.6213 41.5458 28.3361 41.9627 29.1104 42.2605C29.9442 42.5583 30.7781 42.737 31.7311 42.737C32.6245 42.737 33.5179 42.5583 34.2922 42.2605C35.0665 41.9627 35.7812 41.4267 36.4364 40.7715L37.985 42.2605C37.2107 43.0944 36.3173 43.7496 35.1856 44.2261C34.1135 44.8217 32.9223 45.0004 31.612 45.0004Z" fill="white"/>
<path d="M49.6591 32.0159C50.6717 32.0159 51.6247 32.1945 52.399 32.6115C53.1733 33.0284 53.8284 33.624 54.2454 34.4579C54.6623 35.2917 54.9005 36.3043 54.9005 37.5551V44.8811H52.5776V37.7933C52.5776 36.5425 52.2798 35.6491 51.6842 34.9939C51.0886 34.3983 50.2547 34.0409 49.1826 34.0409C48.3488 34.0409 47.634 34.2196 47.0384 34.5174C46.4428 34.8152 45.9663 35.2917 45.6685 35.9469C45.3707 36.5425 45.192 37.3168 45.192 38.2698V44.8216H42.8691V27.0723H45.192V35.5895L44.7155 34.6961C45.1325 33.8623 45.7876 33.2071 46.6215 32.7306C47.5149 32.2541 48.5275 32.0159 49.6591 32.0159Z" fill="white"/>
<path d="M64.6682 45C63.7152 45 62.8814 44.8213 62.1667 44.5235C61.4519 44.2257 60.9159 43.7492 60.4989 43.2132C60.1416 42.6176 59.9033 42.0219 59.9033 41.3072C59.9033 40.5925 60.082 39.9969 60.3798 39.4608C60.6776 38.9248 61.2137 38.4483 61.988 38.1505C62.7623 37.8526 63.7152 37.674 64.966 37.674H68.9566V39.3417H65.0256C63.8939 39.3417 63.1196 39.5204 62.7027 39.9373C62.2858 40.2947 62.1071 40.7712 62.1071 41.3072C62.1071 41.9028 62.3453 42.4389 62.8218 42.7962C63.2983 43.1536 64.0131 43.3323 64.9065 43.3323C65.7403 43.3323 66.5146 43.1536 67.1698 42.7367C67.825 42.3197 68.3015 41.7837 68.5397 41.069L69.0162 42.6771C68.7184 43.4514 68.1823 44.047 67.4081 44.464C66.8124 44.7618 65.8595 45 64.6682 45ZM68.8375 44.8213V42.1411L68.7184 41.6646V37.0783C68.7184 36.1254 68.4206 35.3511 67.8845 34.815C67.2889 34.279 66.4551 34.0407 65.3234 34.0407C64.5491 34.0407 63.8344 34.1598 63.1196 34.3981C62.4049 34.6363 61.8093 34.9937 61.2732 35.4106L60.3202 33.6834C60.9754 33.1473 61.7497 32.7304 62.7027 32.4921C63.5961 32.1943 64.6087 32.0752 65.5616 32.0752C67.2889 32.0752 68.6588 32.4921 69.5523 33.326C70.5052 34.1598 70.9817 35.4702 70.9817 37.1975V44.8809H68.8375V44.8213Z" fill="white"/>
<path d="M77.0576 44.8213V32.1347H79.2614V35.5893L79.0231 34.7554C79.3805 33.862 79.9761 33.2069 80.81 32.7304C81.6438 32.2539 82.6564 32.0156 83.8476 32.0156V34.279C83.7285 34.279 83.6689 34.279 83.5498 34.279C83.4902 34.279 83.3711 34.279 83.3116 34.279C82.0608 34.279 81.1078 34.6363 80.393 35.3511C79.6783 36.0658 79.321 37.1379 79.321 38.5078V44.8213H77.0576Z" fill="white"/>
<path d="M87.1826 34.0413V32.1353H95.283V34.0413H87.1826ZM93.377 45.0006C92.1262 45.0006 91.1137 44.6432 90.3989 43.988C89.6842 43.2733 89.3268 42.3203 89.3268 41.0695V29.3955H91.6497V40.9504C91.6497 41.6651 91.8284 42.1416 92.1858 42.5586C92.5431 42.9159 93.0196 43.0946 93.6748 43.0946C94.3895 43.0946 94.9852 42.9159 95.4616 42.499L96.1764 44.1667C95.819 44.4645 95.4021 44.7028 94.9256 44.8219C94.3895 44.8815 93.913 45.0006 93.377 45.0006Z" fill="white"/>
<path d="M105.944 45C104.574 45 103.383 44.7022 102.371 44.1662C101.358 43.6301 100.524 42.8558 99.9882 41.8433C99.3925 40.8903 99.1543 39.7586 99.1543 38.5078C99.1543 37.257 99.4521 36.1254 99.9882 35.1724C100.524 34.2194 101.299 33.4451 102.251 32.9091C103.204 32.373 104.277 32.0752 105.527 32.0752C106.778 32.0752 107.85 32.373 108.803 32.9091C109.756 33.4451 110.471 34.2194 111.007 35.1724C111.543 36.1254 111.781 37.3166 111.781 38.6269C111.781 38.7461 111.781 38.8056 111.781 38.9843C111.781 39.1034 111.781 39.2226 111.722 39.3417H100.941V37.674H110.531L109.578 38.2696C109.578 37.4357 109.399 36.721 109.101 36.0658C108.744 35.4106 108.267 34.9341 107.672 34.5768C107.076 34.2194 106.361 34.0407 105.527 34.0407C104.753 34.0407 104.038 34.2194 103.383 34.5768C102.788 34.9341 102.251 35.4106 101.954 36.0658C101.596 36.721 101.418 37.4357 101.418 38.2696V38.6269C101.418 39.4608 101.596 40.2351 102.013 40.8903C102.43 41.5455 102.966 42.0815 103.681 42.4389C104.396 42.7962 105.17 42.9749 106.123 42.9749C106.897 42.9749 107.552 42.8558 108.148 42.6176C108.744 42.3793 109.28 41.9624 109.756 41.4859L111.007 42.9749C110.411 43.6301 109.697 44.1662 108.863 44.5235C107.969 44.8213 107.016 45 105.944 45Z" fill="white"/>
<path d="M116.726 44.8213V32.1347H118.929V35.5893L118.691 34.7554C119.048 33.862 119.644 33.2069 120.478 32.7304C121.312 32.2539 122.324 32.0156 123.516 32.0156V34.279C123.396 34.279 123.337 34.279 123.218 34.279C123.158 34.279 123.039 34.279 122.98 34.279C121.729 34.279 120.776 34.6363 120.061 35.3511C119.346 36.0658 118.989 37.1379 118.989 38.5078V44.8213H116.726Z" fill="white"/>
<path d="M135.606 45.0004C134.355 45.0004 133.164 44.7621 132.092 44.3452C131.02 43.9282 130.067 43.3326 129.293 42.5583C128.518 41.784 127.863 40.8906 127.446 39.8185C126.97 38.806 126.791 37.6147 126.791 36.4235C126.791 35.1727 127.029 34.0411 127.446 33.0285C127.863 32.016 128.518 31.063 129.293 30.2887C130.067 29.5144 131.02 28.9188 132.092 28.5019C133.164 28.0849 134.355 27.8467 135.606 27.8467C136.916 27.8467 138.108 28.0849 139.18 28.5019C140.252 28.9188 141.205 29.574 141.979 30.4674L140.431 31.9564C139.775 31.3012 139.061 30.7652 138.286 30.4674C137.512 30.1696 136.619 29.9909 135.725 29.9909C134.772 29.9909 133.938 30.1696 133.105 30.4674C132.271 30.7652 131.615 31.2417 131.02 31.7777C130.424 32.3733 129.948 33.0285 129.65 33.8028C129.352 34.5771 129.173 35.4705 129.173 36.364C129.173 37.3169 129.352 38.1508 129.65 38.9251C129.948 39.6994 130.424 40.4141 131.02 40.9502C131.615 41.5458 132.33 41.9627 133.105 42.2605C133.938 42.5583 134.772 42.737 135.725 42.737C136.619 42.737 137.512 42.5583 138.286 42.2605C139.061 41.9627 139.775 41.4267 140.431 40.7715L141.979 42.2605C141.205 43.0944 140.311 43.7496 139.18 44.2261C138.108 44.8217 136.916 45.0004 135.606 45.0004Z" fill="white"/>
<path d="M150.377 45C149.424 45 148.59 44.8213 147.876 44.5235C147.161 44.2257 146.625 43.7492 146.208 43.2132C145.851 42.6176 145.612 42.0219 145.612 41.3072C145.612 40.5925 145.791 39.9969 146.089 39.4608C146.387 38.9248 146.923 38.4483 147.697 38.1505C148.471 37.8526 149.424 37.674 150.675 37.674H154.666V39.3417H150.735C149.603 39.3417 148.829 39.5204 148.412 39.9373C147.995 40.2947 147.816 40.7712 147.816 41.3072C147.816 41.9028 148.054 42.4389 148.531 42.7962C149.007 43.1536 149.722 43.3323 150.615 43.3323C151.449 43.3323 152.224 43.1536 152.879 42.7367C153.534 42.3793 154.01 41.7837 154.249 41.069L154.725 42.6771C154.427 43.4514 153.891 44.047 153.117 44.464C152.343 44.8809 151.568 45 150.377 45ZM154.547 44.8213V42.1411L154.427 41.6646V37.0783C154.427 36.1254 154.13 35.3511 153.594 34.815C152.998 34.279 152.164 34.0407 151.032 34.0407C150.258 34.0407 149.543 34.1598 148.829 34.3981C148.114 34.6363 147.518 34.9937 146.982 35.4106L146.029 33.6834C146.684 33.1473 147.459 32.7304 148.412 32.4921C149.305 32.1943 150.318 32.0752 151.271 32.0752C152.998 32.0752 154.368 32.4921 155.261 33.326C156.214 34.1598 156.691 35.4702 156.691 37.1975V44.8809H154.547V44.8213Z" fill="white"/>
<path d="M162.766 44.8213V32.1347H164.969V35.5893L164.731 34.7554C165.089 33.862 165.684 33.2069 166.518 32.7304C167.352 32.2539 168.364 32.0156 169.556 32.0156V34.279C169.436 34.279 169.377 34.279 169.258 34.279C169.198 34.279 169.079 34.279 169.02 34.279C167.769 34.279 166.816 34.6363 166.101 35.3511C165.386 36.0658 165.029 37.1379 165.029 38.5078V44.8213H162.766Z" fill="white"/>
<defs>
<linearGradient id="paint0_linear_261_4624" x1="10.1835" y1="27.6992" x2="10.7459" y2="32.9775" gradientUnits="userSpaceOnUse">
<stop stop-color="white"/>
<stop offset="1" stop-color="white"/>
</linearGradient>
</defs>
</svg>
