<svg width="40" height="40" viewBox="0 0 40 40" fill="none" xmlns="http://www.w3.org/2000/svg">
<g clip-path="url(#clip0_126_5982)">
<path d="M19.9997 3.33301C10.7997 3.33301 3.33301 10.7997 3.33301 19.9997C3.33301 29.1997 10.7997 36.6663 19.9997 36.6663C29.1997 36.6663 36.6663 29.1997 36.6663 19.9997C36.6663 10.7997 29.1997 3.33301 19.9997 3.33301ZM19.9997 8.33301C22.7663 8.33301 24.9997 10.5663 24.9997 13.333C24.9997 16.0997 22.7663 18.333 19.9997 18.333C17.233 18.333 14.9997 16.0997 14.9997 13.333C14.9997 10.5663 17.233 8.33301 19.9997 8.33301ZM19.9997 31.9997C15.833 31.9997 12.1497 29.8663 9.99967 26.633C10.0497 23.3163 16.6663 21.4997 19.9997 21.4997C23.3163 21.4997 29.9497 23.3163 29.9997 26.633C27.8497 29.8663 24.1663 31.9997 19.9997 31.9997Z" fill="#5EABFF"/>
</g>
<defs>
<clipPath id="clip0_126_5982">
<rect width="40" height="40" fill="white"/>
</clipPath>
</defs>
</svg>
