<svg width="12" height="13" viewBox="0 0 12 13" fill="none" xmlns="http://www.w3.org/2000/svg">
<g clip-path="url(#clip0_467_2133)">
<path d="M7.3925 9.33125H8.31375V11.1752C8.31375 11.9378 7.69385 12.5582 6.93192 12.5582H1.38174C0.619897 12.5582 0 11.9378 0 11.1752V2.13976C0 1.37727 0.619897 0.756836 1.38174 0.756836H6.93192C7.69385 0.756836 8.31375 1.37727 8.31375 2.13976V3.98376H7.3925V2.13976C7.3925 1.88563 7.18593 1.67879 6.93192 1.67879H1.38174C1.12782 1.67879 0.921159 1.88563 0.921159 2.13976V11.1752C0.921159 11.4294 1.12782 11.6362 1.38174 11.6362H6.93192C7.18593 11.6362 7.3925 11.4294 7.3925 11.1752V9.33125ZM9.62645 4.48428L8.97505 5.13625L10.0344 6.19657H4.07627V7.11852H10.0344L8.97505 8.17876L9.62645 8.83072L11.7978 6.65755L9.62645 4.48428Z" fill="#333333"/>
</g>
<defs>
<clipPath id="clip0_467_2133">
<rect width="11.7978" height="11.8079" fill="white" transform="translate(0 0.756836)"/>
</clipPath>
</defs>
</svg>
