<svg width="158" height="38" viewBox="0 0 158 38" fill="none" xmlns="http://www.w3.org/2000/svg">
<path d="M102.194 5.19141C100.703 13.5436 89.4276 17.302 74.871 18.9725C46.6526 22.194 6.2043 17.5407 1.43164 23.1485C6.26396 16.5265 23.3859 15.214 42.2379 14.6771H42.2976C67.6523 13.8419 96.2287 14.4384 102.194 5.19141Z" fill="#3563E9"/>
<path d="M157.916 13.3042C133.336 19.5684 111.979 0.656682 75.1099 3.75891C65.8629 4.53447 36.332 14.7957 36.332 14.7957C43.5507 10.381 68.9651 1.96916 74.9906 1.25326C80.3598 0.597024 101.121 -2.56487 125.879 4.71345C128.027 5.36969 130.175 6.02593 132.382 6.86114C148.251 12.5287 157.916 13.3042 157.916 13.3042Z" fill="#3563E9"/>
<path d="M157.916 13.3047C148.311 24.1625 125.044 19.8074 105.416 19.0915C99.3312 18.8529 93.5443 18.9722 88.6523 19.9864C106.311 11.8132 125.462 14.3189 139.541 15.3927C147.893 15.9893 154.455 16.1683 157.916 13.3047Z" fill="#3563E9"/>
<path d="M17.5395 22.8501C15.9884 27.2052 10.4402 27.2052 5.96583 27.0859C3.22155 27.0262 0.835216 26.9666 0 27.8018C1.07385 23.6257 7.63626 22.5518 12.4686 22.4922C14.7953 22.4922 16.764 22.6712 17.5395 22.8501Z" fill="#333333"/>
<path d="M102.195 5.19141C100.703 13.5436 89.4279 17.302 74.8713 18.9725C63.4169 19.5094 59.0618 14.2595 42.2979 14.6174C67.6526 13.8419 96.2289 14.4384 102.195 5.19141Z" fill="#3563E9"/>
<path d="M125.82 4.65403C110.189 2.20804 96.6466 0.0603421 75.0503 3.75916C65.8033 4.53471 36.2725 14.7959 36.2725 14.7959C43.5508 10.3812 68.9652 1.96941 74.9907 1.25351C80.3599 0.597266 101.121 -2.56462 125.82 4.65403Z" fill="#3563E9"/>
<path d="M139.601 15.3327C127.907 15.0941 124.447 19.3895 105.416 19.0315C99.3312 18.7929 93.5443 18.9122 88.6523 19.9264C106.371 11.7532 125.521 14.2588 139.601 15.3327Z" fill="#3563E9"/>
<path d="M143.299 22.4915C153.381 21.2387 157.676 17.0029 157.676 17.0029C158.929 22.0739 157.02 26.1306 143.299 22.4915Z" fill="#FF1C00"/>
<path d="M26.4726 37.6838C25.4252 37.6838 24.4276 37.4843 23.5298 37.1352C22.6321 36.786 21.834 36.2873 21.1856 35.6389C20.5372 34.9905 19.9886 34.2423 19.6395 33.3445C19.2404 32.4966 19.0908 31.4991 19.0908 30.5016C19.0908 29.4542 19.2903 28.5065 19.6395 27.6586C19.9886 26.8107 20.5372 26.0127 21.1856 25.3643C21.834 24.7159 22.6321 24.2171 23.5298 23.868C24.4276 23.5188 25.4252 23.3193 26.4726 23.3193C27.5698 23.3193 28.5674 23.5188 29.4652 23.868C30.3629 24.2171 31.161 24.7658 31.8094 25.5139L30.5126 26.7608C29.9639 26.2122 29.3654 25.7633 28.717 25.5139C28.0686 25.2645 27.3205 25.1149 26.5723 25.1149C25.7743 25.1149 25.076 25.2645 24.3777 25.5139C23.6795 25.7633 23.1308 26.1623 22.6321 26.6112C22.1333 27.11 21.7343 27.6586 21.4849 28.307C21.2355 28.9554 21.0859 29.7035 21.0859 30.4517C21.0859 31.2497 21.2355 31.948 21.4849 32.5964C21.7343 33.2448 22.1333 33.8433 22.6321 34.2922C23.1308 34.791 23.7293 35.1401 24.3777 35.3895C25.076 35.6389 25.7743 35.7885 26.5723 35.7885C27.3205 35.7885 28.0686 35.6389 28.717 35.3895C29.3654 35.1401 29.9639 34.6912 30.5126 34.1426L31.8094 35.3895C31.161 36.0878 30.4128 36.6364 29.4652 37.0354C28.5674 37.5342 27.5698 37.6838 26.4726 37.6838Z" fill="#333333"/>
<path d="M41.5854 26.8107C42.4333 26.8107 43.2313 26.9603 43.8797 27.3094C44.5281 27.6586 45.0767 28.1573 45.4259 28.8556C45.775 29.5539 45.9745 30.4018 45.9745 31.4492V37.584H44.0293V31.6487C44.0293 30.6013 43.7799 29.8531 43.2812 29.3045C42.7824 28.8057 42.0841 28.5065 41.1863 28.5065C40.4881 28.5065 39.8895 28.6561 39.3908 28.9055C38.892 29.1549 38.493 29.5539 38.2436 30.1025C37.9942 30.6013 37.8446 31.2497 37.8446 32.0477V37.5341H35.8994V22.6709H37.8446V29.8033L37.4456 29.0551C37.7947 28.3568 38.3434 27.8082 39.0416 27.4092C39.7898 27.0102 40.6377 26.8107 41.5854 26.8107Z" fill="#333333"/>
<path d="M54.1542 37.6836C53.3562 37.6836 52.6579 37.534 52.0594 37.2846C51.4609 37.0352 51.012 36.6362 50.6628 36.1873C50.3636 35.6885 50.1641 35.1898 50.1641 34.5912C50.1641 33.9927 50.3137 33.4939 50.5631 33.0451C50.8125 32.5962 51.2613 32.1972 51.9097 31.9478C52.5581 31.6984 53.3562 31.5488 54.4036 31.5488H57.7453V32.9453H54.4535C53.5058 32.9453 52.8574 33.0949 52.5083 33.4441C52.1591 33.7433 52.0095 34.1423 52.0095 34.5912C52.0095 35.09 52.209 35.5389 52.608 35.8382C53.007 36.1374 53.6056 36.287 54.3537 36.287C55.052 36.287 55.7004 36.1374 56.249 35.7883C56.7977 35.4391 57.1967 34.9902 57.3962 34.3917L57.7952 35.7384C57.5458 36.3868 57.0969 36.8856 56.4485 37.2347C55.9498 37.4841 55.1517 37.6836 54.1542 37.6836ZM57.6456 37.534V35.2895L57.5458 34.8905V31.05C57.5458 30.252 57.2964 29.6036 56.8475 29.1547C56.3488 28.7058 55.6505 28.5063 54.7028 28.5063C54.0544 28.5063 53.4559 28.606 52.8574 28.8055C52.2589 29.005 51.7601 29.3043 51.3112 29.6534L50.5132 28.207C51.0618 27.7581 51.7102 27.409 52.5083 27.2095C53.2564 26.9601 54.1043 26.8604 54.9023 26.8604C56.3488 26.8604 57.4959 27.2095 58.2441 27.9078C59.0421 28.606 59.4411 29.7033 59.4411 31.1497V37.5838H57.6456V37.534Z" fill="#333333"/>
<path d="M64.5283 37.534V26.9103H66.3738V29.8031L66.1743 29.1049C66.4735 28.3567 66.9723 27.8081 67.6706 27.4091C68.3688 27.0101 69.2167 26.8105 70.2143 26.8105V28.7059C70.1145 28.7059 70.0646 28.7059 69.9649 28.7059C69.915 28.7059 69.8152 28.7059 69.7654 28.7059C68.718 28.7059 67.9199 29.0051 67.3214 29.6036C66.7229 30.2022 66.4236 31.0999 66.4236 32.2471V37.534H64.5283Z" fill="#333333"/>
<path d="M73.0078 28.5066V26.9105H79.791V28.5066H73.0078ZM78.195 37.6839C77.1476 37.6839 76.2997 37.3846 75.7011 36.836C75.1026 36.2375 74.8034 35.4394 74.8034 34.392V24.6162H76.7486V34.2923C76.7486 34.8908 76.8982 35.2898 77.1974 35.639C77.4967 35.9382 77.8957 36.0878 78.4444 36.0878C79.0429 36.0878 79.5417 35.9382 79.9407 35.5891L80.5392 36.9856C80.2399 37.235 79.8908 37.4345 79.4918 37.5343C79.0429 37.5841 78.6439 37.6839 78.195 37.6839Z" fill="#333333"/>
<path d="M88.7182 37.6836C87.571 37.6836 86.5735 37.4342 85.7256 36.9853C84.8777 36.5364 84.1794 35.888 83.7305 35.0401C83.2317 34.2421 83.0322 33.2944 83.0322 32.247C83.0322 31.1996 83.2816 30.252 83.7305 29.4539C84.1794 28.6559 84.8278 28.0075 85.6258 27.5586C86.4238 27.1097 87.3216 26.8604 88.369 26.8604C89.4164 26.8604 90.3142 27.1097 91.1122 27.5586C91.9103 28.0075 92.5088 28.6559 92.9577 29.4539C93.4066 30.252 93.6061 31.2495 93.6061 32.3468C93.6061 32.4465 93.6061 32.4964 93.6061 32.646C93.6061 32.7458 93.6061 32.8456 93.5562 32.9453H84.5285V31.5488H92.5587L91.7606 32.0475C91.7606 31.3492 91.611 30.7507 91.3616 30.2021C91.0624 29.6534 90.6634 29.2544 90.1646 28.9552C89.6658 28.6559 89.0673 28.5063 88.369 28.5063C87.7206 28.5063 87.1221 28.6559 86.5735 28.9552C86.0747 29.2544 85.6258 29.6534 85.3764 30.2021C85.0772 30.7507 84.9275 31.3492 84.9275 32.0475V32.3468C84.9275 33.0451 85.0772 33.6935 85.4263 34.2421C85.7754 34.7907 86.2243 35.2396 86.8229 35.5389C87.4214 35.8381 88.0698 35.9878 88.8678 35.9878C89.5162 35.9878 90.0648 35.888 90.5636 35.6885C91.0624 35.489 91.5113 35.1399 91.9103 34.7409L92.9577 35.9878C92.4589 36.5364 91.8604 36.9853 91.1621 37.2846C90.414 37.534 89.6159 37.6836 88.7182 37.6836Z" fill="#333333"/>
<path d="M97.7461 37.534V26.9103H99.5915V29.8031L99.392 29.1049C99.6913 28.3567 100.19 27.8081 100.888 27.4091C101.587 27.0101 102.435 26.8105 103.432 26.8105V28.7059C103.332 28.7059 103.282 28.7059 103.183 28.7059C103.133 28.7059 103.033 28.7059 102.983 28.7059C101.936 28.7059 101.138 29.0051 100.539 29.6036C99.9407 30.2022 99.6414 31.0999 99.6414 32.2471V37.534H97.7461Z" fill="#333333"/>
<path d="M113.558 37.6838C112.51 37.6838 111.513 37.4843 110.615 37.1352C109.717 36.786 108.919 36.2873 108.271 35.6389C107.622 34.9905 107.074 34.2423 106.724 33.3445C106.325 32.4966 106.176 31.4991 106.176 30.5016C106.176 29.4542 106.375 28.5065 106.724 27.6586C107.074 26.8107 107.622 26.0127 108.271 25.3643C108.919 24.7159 109.717 24.2171 110.615 23.868C111.513 23.5188 112.51 23.3193 113.558 23.3193C114.655 23.3193 115.652 23.5188 116.55 23.868C117.448 24.2171 118.246 24.7658 118.894 25.5139L117.598 26.7608C117.049 26.2122 116.45 25.7633 115.802 25.5139C115.154 25.2645 114.405 25.1149 113.657 25.1149C112.859 25.1149 112.161 25.2645 111.463 25.5139C110.764 25.7633 110.216 26.1623 109.717 26.6112C109.218 27.11 108.819 27.6586 108.57 28.307C108.32 28.9554 108.171 29.7035 108.171 30.4517C108.171 31.2497 108.32 31.948 108.57 32.5964C108.819 33.2448 109.218 33.8433 109.717 34.2922C110.216 34.791 110.814 35.1401 111.463 35.3895C112.161 35.6389 112.859 35.7885 113.657 35.7885C114.405 35.7885 115.154 35.6389 115.802 35.3895C116.45 35.1401 117.049 34.6912 117.598 34.1426L118.894 35.3895C118.246 36.0878 117.498 36.6364 116.55 37.0354C115.652 37.5342 114.655 37.6838 113.558 37.6838Z" fill="#333333"/>
<path d="M125.927 37.6836C125.129 37.6836 124.43 37.534 123.832 37.2846C123.233 37.0352 122.784 36.6362 122.435 36.1873C122.136 35.6885 121.937 35.1898 121.937 34.5912C121.937 33.9927 122.086 33.4939 122.336 33.0451C122.585 32.5962 123.034 32.1972 123.682 31.9478C124.331 31.6984 125.129 31.5488 126.176 31.5488H129.518V32.9453H126.226C125.278 32.9453 124.63 33.0949 124.281 33.4441C123.932 33.7433 123.782 34.1423 123.782 34.5912C123.782 35.09 123.981 35.5389 124.38 35.8382C124.779 36.1374 125.378 36.287 126.126 36.287C126.824 36.287 127.473 36.1374 128.021 35.7883C128.57 35.489 128.969 34.9902 129.169 34.3917L129.568 35.7384C129.318 36.3868 128.869 36.8856 128.221 37.2347C127.573 37.5838 126.924 37.6836 125.927 37.6836ZM129.418 37.534V35.2895L129.318 34.8905V31.05C129.318 30.252 129.069 29.6036 128.62 29.1547C128.121 28.7058 127.423 28.5063 126.475 28.5063C125.827 28.5063 125.228 28.606 124.63 28.8055C124.031 29.005 123.533 29.3043 123.084 29.6534L122.286 28.207C122.834 27.7581 123.483 27.409 124.281 27.2095C125.029 26.9601 125.877 26.8604 126.675 26.8604C128.121 26.8604 129.268 27.2095 130.017 27.9078C130.815 28.606 131.214 29.7033 131.214 31.1497V37.5838H129.418V37.534Z" fill="#333333"/>
<path d="M136.301 37.534V26.9103H138.146V29.8031L137.947 29.1049C138.246 28.3567 138.745 27.8081 139.443 27.4091C140.141 27.0101 140.989 26.8105 141.987 26.8105V28.7059C141.887 28.7059 141.837 28.7059 141.737 28.7059C141.687 28.7059 141.588 28.7059 141.538 28.7059C140.49 28.7059 139.692 29.0051 139.094 29.6036C138.495 30.2022 138.196 31.0999 138.196 32.2471V37.534H136.301Z" fill="#333333"/>
</svg>
