<svg width="11" height="13" viewBox="0 0 11 13" fill="none" xmlns="http://www.w3.org/2000/svg">
<path d="M5.39977 7.3207C7.29231 7.3207 8.81146 5.80169 8.81146 3.91008H7.81146C7.81146 5.24919 6.74024 6.3207 5.39977 6.3207V7.3207ZM1.98808 3.91008C1.98808 5.80176 3.50785 7.3207 5.39977 7.3207V6.3207C4.05979 6.3207 2.98808 5.24913 2.98808 3.91008H1.98808ZM5.39977 0.5C3.50797 0.5 1.98808 2.01827 1.98808 3.91008H2.98808C2.98808 2.57115 4.05966 1.5 5.39977 1.5V0.5ZM8.81146 3.91008C8.81146 2.01834 7.29218 0.5 5.39977 0.5V1.5C6.74037 1.5 7.81146 2.57109 7.81146 3.91008H8.81146ZM0.499878 10.1158C0.499878 10.6146 0.672464 11.0399 0.983275 11.379C1.28376 11.7069 1.69221 11.932 2.13833 12.09C3.02391 12.4036 4.19487 12.4995 5.39987 12.4995V11.4995C4.21918 11.4995 3.19014 11.4016 2.47215 11.1473C2.11649 11.0214 1.87225 10.869 1.7205 10.7034C1.57908 10.5491 1.49988 10.365 1.49988 10.1158H0.499878ZM5.39987 7.74519C4.2021 7.74519 3.03169 7.83759 2.14513 8.14722C1.69859 8.30317 1.28864 8.52609 0.986621 8.85259C0.673957 9.1906 0.499878 9.61586 0.499878 10.1158H1.49988C1.49988 9.86736 1.57917 9.68466 1.72072 9.53164C1.87291 9.3671 2.11801 9.21592 2.47484 9.0913C3.19502 8.83978 4.22461 8.74519 5.39987 8.74519V7.74519ZM10.2999 10.129C10.2999 9.63019 10.1273 9.20485 9.81658 8.8657C9.51614 8.5378 9.10773 8.31274 8.66163 8.15475C7.77611 7.84113 6.60514 7.74519 5.39987 7.74519V8.74519C6.58085 8.74519 7.60988 8.84312 8.32779 9.09738C8.68341 9.22332 8.92758 9.3757 9.07929 9.54127C9.22067 9.69557 9.29987 9.87971 9.29987 10.129H10.2999ZM5.39987 12.4995C6.59765 12.4995 7.76806 12.4071 8.65462 12.0975C9.10116 11.9415 9.51111 11.7186 9.81313 11.3921C10.1258 11.0541 10.2999 10.6288 10.2999 10.129H9.29987C9.29987 10.3773 9.22058 10.56 9.07903 10.7131C8.92684 10.8776 8.68174 11.0288 8.3249 11.1534C7.60472 11.4049 6.57513 11.4995 5.39987 11.4995V12.4995Z" fill="#333333"/>
</svg>
