<svg width="32" height="32" viewBox="0 0 32 32" fill="none" xmlns="http://www.w3.org/2000/svg">
<path d="M25.0532 5.96044C24.1587 6.01156 23.2615 5.93978 22.3865 5.74711C21.3311 5.38571 20.344 4.84934 19.4665 4.16044C18.7159 3.62829 18.003 3.04467 17.3332 2.41377C17.0492 2.14852 16.6751 2.00098 16.2865 2.00098C15.8979 2.00098 15.5238 2.14852 15.2399 2.41377C14.5878 3.02472 13.9023 3.59894 13.1865 4.13377C12.3036 4.83173 11.3128 5.38115 10.2532 5.76044C9.25659 5.98562 8.23279 6.06645 7.2132 6.00044C6.37834 5.96587 5.54599 5.88575 4.71986 5.76044C4.51799 5.73051 4.31216 5.74155 4.11464 5.79288C3.91712 5.84421 3.73197 5.93479 3.57021 6.05922C3.40845 6.18365 3.2734 6.33938 3.17313 6.51712C3.07285 6.69486 3.00939 6.89098 2.98653 7.09377C2.91986 7.73377 2.74653 9.40044 2.66653 11.2538C2.55442 13.1055 2.67085 14.9639 3.0132 16.7871C3.97859 19.8077 5.75413 22.5056 8.14653 24.5871C10.0481 26.3808 12.1101 27.9964 14.3065 29.4138C14.8952 29.8179 15.5925 30.0343 16.3065 30.0343C17.0206 30.0343 17.7179 29.8179 18.3065 29.4138C20.3865 27.9595 22.3321 26.3218 24.1199 24.5204C26.3722 22.4237 28.0402 19.777 28.9599 16.8404" stroke="#1A202C" stroke-width="2.5" stroke-linecap="round" stroke-linejoin="round"/>
<path d="M14.6667 14.6667L18.4801 18.48C18.5038 18.5059 18.5327 18.5265 18.5648 18.5406C18.5969 18.5548 18.6316 18.5621 18.6667 18.5621C18.7019 18.5621 18.7366 18.5548 18.7687 18.5406C18.8008 18.5265 18.8297 18.5059 18.8534 18.48L29.3334 8" stroke="#3563E9" stroke-width="2.5" stroke-linecap="round" stroke-linejoin="round"/>
</svg>
