<svg width="20" height="20" viewBox="0 0 20 20" fill="none" xmlns="http://www.w3.org/2000/svg">
<path fill-rule="evenodd" clip-rule="evenodd" d="M9.16676 2.65862C9.22433 2.47609 9.33858 2.31666 9.49294 2.20349C9.64729 2.09031 9.8337 2.0293 10.0251 2.0293C10.2165 2.0293 10.4029 2.09031 10.5573 2.20349C10.7116 2.31666 10.8259 2.47609 10.8834 2.65862L12.4334 7.42529H17.4334C17.6317 7.41779 17.8269 7.47541 17.9893 7.58932C18.1517 7.70324 18.2724 7.86719 18.3329 8.05614C18.3933 8.24508 18.3903 8.44862 18.3242 8.63567C18.2581 8.82271 18.1325 8.98297 17.9668 9.09196L13.9084 12.0336L15.4584 16.8086C15.5197 16.9905 15.5213 17.1872 15.4628 17.3701C15.4044 17.5529 15.2891 17.7122 15.1336 17.8249C14.9782 17.9375 14.7908 17.9975 14.5989 17.996C14.407 17.9946 14.2205 17.9319 14.0668 17.817L10.0001 14.842L5.94176 17.792C5.78802 17.9069 5.60157 17.9696 5.40963 17.971C5.2177 17.9725 5.03034 17.9125 4.87491 17.7999C4.71948 17.6872 4.60412 17.5279 4.54569 17.3451C4.48725 17.1622 4.4888 16.9655 4.5501 16.7836L6.1001 12.0086L2.04176 9.06696C1.876 8.95797 1.75047 8.79771 1.68437 8.61067C1.61826 8.42362 1.6152 8.22008 1.67566 8.03114C1.73612 7.84219 1.85678 7.67824 2.0192 7.56432C2.18161 7.45041 2.37686 7.39279 2.5751 7.40029H7.5751L9.16676 2.65862Z" fill="#FBAD39"/>
</svg>
