<svg width="16" height="18" viewBox="0 0 16 18" fill="none" xmlns="http://www.w3.org/2000/svg">
<path d="M9.94129 0.708473C9.01679 1.33197 8.35029 2.34247 8.15679 3.43897C7.96329 4.49247 8.32879 4.64297 9.64029 4.08397C10.7798 3.56797 11.6828 2.34247 11.8548 1.05247C11.9623 0.192473 11.9623 0.170973 11.3603 0.170973C11.0163 0.170973 10.3713 0.407473 9.94129 0.708473Z" fill="#333333"/>
<path d="M3.6416 4.83644C1.8356 5.78244 0.954102 7.41644 0.954102 9.86744C0.954102 12.6194 2.1796 15.6294 3.9856 17.2419C4.8026 17.9944 4.9531 18.0374 5.8776 17.9514C6.4151 17.8869 7.2751 17.7149 7.7911 17.5644C8.5866 17.3064 8.8446 17.3279 9.74759 17.6504C11.0591 18.1019 12.1986 18.1234 12.8866 17.6719C13.5316 17.2419 15.0151 15.0704 15.3591 14.0599C15.5956 13.3289 15.5741 13.2859 14.6281 12.4044C12.8866 10.8134 12.8006 8.68494 14.4346 7.00794L15.2301 6.19094L14.6926 5.63194C13.6176 4.44944 11.7686 4.14845 9.6186 4.83644C8.5436 5.18044 8.4146 5.18044 7.3396 4.83644C5.8991 4.38494 4.4801 4.38494 3.6416 4.83644Z" fill="#333333"/>
</svg>
