<svg width="22" height="24" viewBox="0 0 22 24" fill="none" xmlns="http://www.w3.org/2000/svg">
<path d="M18.6731 7.95483C17.56 6.89409 16.4202 6.04692 15.2857 5.43675C13.8407 4.65966 12.3988 4.26562 11 4.26562C9.6012 4.26562 8.15929 4.65966 6.71434 5.4367C5.57975 6.04688 4.44005 6.89409 3.3269 7.95478C2.1212 9.10373 1.00775 10.4363 0 12C1.00384 13.5576 2.11578 14.8911 3.3269 16.0452C4.44005 17.1059 5.57975 17.9531 6.71434 18.5632C8.15929 19.3403 9.6012 19.7344 11 19.7344C12.3988 19.7344 13.8407 19.3403 15.2857 18.5633C16.4202 17.9531 17.56 17.1059 18.6731 16.0452C19.8788 14.8963 20.9923 13.5638 22 12C20.9962 10.4424 19.8842 9.10889 18.6731 7.95483ZM11 18.3281C8.26693 18.3281 5.79184 16.522 4.19676 15.0068C2.94216 13.8151 2.01738 12.6087 1.58073 12.0002C2.62582 10.5462 6.46817 5.67188 11 5.67188C13.7331 5.67188 16.2082 7.47802 17.8032 8.99316C19.0577 10.1848 19.9825 11.3912 20.4193 11.9998C19.3742 13.4538 15.5318 18.3281 11 18.3281Z" fill="#64748B"/>
<path d="M11 9C9.3458 9 8 10.3458 8 12C8 13.6542 9.3458 15 11 15C12.6542 15 14 13.6542 14 12C14 10.3458 12.6542 9 11 9ZM11 14.1429C9.81843 14.1429 8.85714 13.1816 8.85714 12C8.85714 10.8184 9.81843 9.85714 11 9.85714C12.1816 9.85714 13.1429 10.8184 13.1429 12C13.1429 13.1816 12.1816 14.1429 11 14.1429Z" fill="#64748B" stroke="#64748B" stroke-width="0.6"/>
</svg>
