<svg width="24" height="24" viewBox="0 0 24 24" fill="none" xmlns="http://www.w3.org/2000/svg">
<path d="M11.998 4.63991C13.717 4.61306 15.3796 5.25306 16.637 6.42561L20.0215 3.11548C17.8495 1.08017 14.9743 -0.035931 11.998 0.00088257C9.77403 0.000315013 7.59379 0.618398 5.70104 1.78601C3.80828 2.95363 2.27764 4.62475 1.28027 6.61249L5.15968 9.625C5.63421 8.18281 6.54942 6.92593 7.77627 6.03156C9.00313 5.13718 10.4797 4.65043 11.998 4.63991Z" fill="#EA4335"/>
<path d="M23.5132 12.2634C23.5277 11.4389 23.4429 10.6157 23.2606 9.81152H11.9961V14.2637H18.6077C18.4815 15.0446 18.1987 15.792 17.7761 16.4608C17.3535 17.1296 16.8 17.7059 16.1489 18.1552L19.9401 21.0881C21.1194 19.9487 22.0467 18.5746 22.6622 17.0546C23.2777 15.5346 23.5676 13.9024 23.5132 12.2634Z" fill="#4285F4"/>
<path d="M5.17129 14.3711C4.90928 13.6075 4.77426 12.8061 4.77158 11.9988C4.77623 11.1928 4.90641 10.3925 5.15744 9.62655L1.27977 6.6123C0.438304 8.2829 0 10.1274 0 11.998C0 13.8685 0.438304 15.713 1.27977 17.3836L5.17129 14.3711Z" fill="#FBBC05"/>
<path d="M11.9958 23.9952C14.9178 24.0779 17.7605 23.0382 19.9398 21.09L16.1556 18.1571C14.9297 18.979 13.4781 19.3982 12.0028 19.3562C10.4846 19.3487 9.00749 18.8629 7.78116 17.968C6.55482 17.0731 5.64166 15.8146 5.1714 14.3711L1.29199 17.3836C2.2864 19.3708 3.81445 21.0418 5.70495 22.2095C7.59546 23.3773 9.77376 23.9956 11.9958 23.9952Z" fill="#34A853"/>
</svg>
