<svg width="19" height="19" viewBox="0 0 19 19" fill="none" xmlns="http://www.w3.org/2000/svg">
<g clip-path="url(#clip0_269_8881)">
<path d="M5.07129 2.07129H14.0713C14.2702 2.07129 14.461 2.15031 14.6016 2.29096C14.7423 2.43161 14.8213 2.62238 14.8213 2.82129V16.3213C14.8213 16.5202 14.7423 16.711 14.6016 16.8516C14.461 16.9923 14.2702 17.0713 14.0713 17.0713H5.07129C4.87238 17.0713 4.68161 16.9923 4.54096 16.8516C4.40031 16.711 4.32129 16.5202 4.32129 16.3213V2.82129C4.32129 2.62238 4.40031 2.43161 4.54096 2.29096C4.68161 2.15031 4.87238 2.07129 5.07129 2.07129ZM9.57129 13.3213C9.37238 13.3213 9.18161 13.4003 9.04096 13.541C8.90031 13.6816 8.82129 13.8724 8.82129 14.0713C8.82129 14.2702 8.90031 14.461 9.04096 14.6016C9.18161 14.7423 9.37238 14.8213 9.57129 14.8213C9.7702 14.8213 9.96097 14.7423 10.1016 14.6016C10.2423 14.461 10.3213 14.2702 10.3213 14.0713C10.3213 13.8724 10.2423 13.6816 10.1016 13.541C9.96097 13.4003 9.7702 13.3213 9.57129 13.3213Z" fill="#3563E9"/>
</g>
<defs>
<clipPath id="clip0_269_8881">
<rect width="18" height="18" fill="white" transform="translate(0.571289 0.571289)"/>
</clipPath>
</defs>
</svg>
