<svg width="12" height="16" viewBox="0 0 12 16" fill="none" xmlns="http://www.w3.org/2000/svg">
<path d="M9.77654 9.77633L5.72691 13.826L1.67727 9.77633C0.876377 8.9754 0.330972 7.95496 0.110022 6.84406C-0.110928 5.73316 0.00250094 4.58168 0.435965 3.53525C0.86943 2.48881 1.60346 1.5944 2.54524 0.965137C3.48702 0.33587 4.59425 0 5.72691 0C6.85957 0 7.9668 0.33587 8.90858 0.965137C9.85035 1.5944 10.5844 2.48881 11.0178 3.53525C11.4513 4.58168 11.5647 5.73316 11.3438 6.84406C11.1228 7.95496 10.5774 8.9754 9.77654 9.77633ZM0.715866 14.3171H10.7379V15.7488H0.715866V14.3171Z" fill="#3563E9"/>
</svg>
