<svg width="16" height="16" viewBox="0 0 16 16" fill="none" xmlns="http://www.w3.org/2000/svg">
<g clip-path="url(#clip0_269_8887)">
<path d="M1.43689 4.39031L7.35968 0.839326C7.45923 0.779598 7.57313 0.748047 7.68922 0.748047C7.80531 0.748047 7.91922 0.779598 8.01876 0.839326L13.9358 4.39095C13.9833 4.4194 14.0226 4.45966 14.0498 4.50782C14.0771 4.55598 14.0914 4.61038 14.0914 4.66573V12.8104C14.0914 12.9803 14.0239 13.1432 13.9038 13.2633C13.7837 13.3835 13.6208 13.4509 13.4509 13.4509H1.92176C1.75189 13.4509 1.58897 13.3835 1.46885 13.2633C1.34873 13.1432 1.28125 12.9803 1.28125 12.8104V4.66509C1.28124 4.60974 1.29557 4.55534 1.32285 4.50718C1.35013 4.45902 1.38942 4.41876 1.43689 4.39031ZM11.751 5.28062L7.72541 8.76434L3.61719 5.27677L2.78837 6.25291L7.7331 10.4514L12.5888 6.24971L11.751 5.28062Z" fill="#3563E9"/>
</g>
<defs>
<clipPath id="clip0_269_8887">
<rect width="15.3722" height="15.3722" fill="white"/>
</clipPath>
</defs>
</svg>
